<?xml version="1.0" encoding="UTF-8"?>
<svg id="Layer_1" data-name="Layer 1" xmlns="http://www.w3.org/2000/svg" viewBox="0 0 500 500">
  <defs>
    <style>.cls-1 {
  fill: #fdd209;
}

.cls-2 {
  fill: #e32026;
}
</style>
  </defs>
  <path d="M37.8,125.78v318.72s2.91,55.5,76.69,55.5h135.52V59.84S157.79,1.47,51.92,94.59c-8.97,7.89-14.12,19.25-14.12,31.19Z"></path>
  <path d="M462.2,125.78v318.72s-2.91,55.5-76.69,55.5-135.52,0-135.52,0V59.84S342.21,1.47,448.08,94.59c8.97,7.89,14.12,19.25,14.12,31.19Z"></path>
  <rect class="cls-1" x="37.8" y="138.17" width="424.41" height="306.33"></rect>
  <path class="cls-1" d="M54.3,0h391.41c9.11,0,16.5,7.39,16.5,16.5v65.87H37.8V16.5C37.8,7.39,45.19,0,54.3,0Z"></path>
  <path class="cls-2" d="M427.95,312.31l-162.37,89.44c-9.6,5.29-21.56,5.29-31.17,0l-162.37-89.44c-20.31-11.19-19.81-38.62.89-49.17l162.37-82.7c9.15-4.66,20.23-4.66,29.39,0l162.37,82.7c20.7,10.54,21.2,37.98.89,49.17h0Z"></path>
</svg>